<?xml version="1.0" encoding="UTF-8" standalone="no"?>
<svg width="1284" height="242" viewBox="0 0 1284 242" fill="none" xmlns="http://www.w3.org/2000/svg">
  <rect y="37" width="170" height="147" rx="4" fill="#009688"/>
  <path d="M228.206 115.978H254.933C260.432 115.978 264.504 114.298 267.152 110.938C269.799 107.476 271.123 102.182 271.123 95.0545V85.5855C271.123 78.9673 269.799 74.08 267.152 70.9236C264.504 67.6655 260.432 66.0364 254.933 66.0364H228.206V115.978ZM228.206 176H214.308V53.8182H256.155C265.624 53.8182 272.802 56.5673 277.69 62.0655C282.577 67.4618 285.021 75.3527 285.021 85.7382V95.0545C285.021 104.422 283.137 111.855 279.37 117.353C275.603 122.749 270.104 126.109 262.875 127.433L286.548 176H270.664L247.297 127.891H228.206V176ZM339.331 165.156C343.2 165.156 346.866 164.291 350.328 162.56C353.891 160.727 356.793 157.469 359.033 152.785V136.596H339.637C335.564 136.596 332.306 137.665 329.862 139.804C327.52 141.84 326.35 145.455 326.35 150.647C326.35 155.229 327.368 158.793 329.404 161.338C331.542 163.884 334.851 165.156 339.331 165.156ZM337.04 177.527C329.71 177.527 323.906 175.236 319.63 170.655C315.353 165.971 313.215 159.607 313.215 151.564C313.215 143.622 315.404 137.36 319.782 132.778C324.262 128.095 330.219 125.753 337.651 125.753H359.033V110.48C359.033 106 357.76 102.284 355.215 99.3309C352.67 96.2764 348.902 94.7491 343.913 94.7491C338.517 94.7491 334.597 96.0218 332.153 98.5673C329.71 101.011 327.826 105.593 326.502 112.313L314.742 108.647C316.168 99.9927 319.273 93.5273 324.059 89.2509C328.946 84.9745 335.615 82.8364 344.066 82.8364C352.517 82.8364 359.39 84.9236 364.684 89.0982C370.08 93.2727 372.779 99.7382 372.779 108.495V154.313C372.779 158.895 373.797 161.898 375.833 163.324C377.971 164.749 381.535 164.851 386.524 163.629V176.611C379.804 177.629 374.662 177.018 371.099 174.778C367.637 172.436 365.6 168.364 364.99 162.56H362.393C360.459 166.938 357.15 170.553 352.466 173.404C347.782 176.153 342.64 177.527 337.04 177.527ZM411.511 176V84.3636H425.409V96.2764H428.769C430.5 92.3055 433.249 89.0982 437.017 86.6545C440.886 84.1091 444.958 82.8364 449.235 82.8364C455.649 82.8364 460.893 85.4836 464.966 90.7782C469.14 95.9709 471.227 102.691 471.227 110.938V176H457.329V113.84C457.329 108.24 456.26 103.862 454.122 100.705C451.984 97.5491 448.929 95.9709 444.958 95.9709C441.191 95.9709 437.627 97.1418 434.267 99.4836C430.907 101.825 427.955 105.135 425.409 109.411V176H411.511ZM525.367 164.393C529.338 164.393 532.901 163.222 536.058 160.88C539.214 158.538 542.065 154.924 544.611 150.036V101.011C542.371 98.9745 539.978 97.4473 537.432 96.4291C534.887 95.4109 532.189 94.9018 529.338 94.9018C523.738 94.9018 519.563 96.5818 516.814 99.9418C514.065 103.2 512.691 108.24 512.691 115.062V146.065C512.691 152.276 513.709 156.909 515.745 159.964C517.781 162.916 520.989 164.393 525.367 164.393ZM541.251 164.087C539.723 168.364 537.178 171.673 533.614 174.015C530.051 176.356 525.774 177.527 520.785 177.527C513.76 177.527 508.312 174.727 504.443 169.127C500.676 163.527 498.792 155.687 498.792 145.607V114.756C498.792 104.575 501.338 96.6836 506.429 91.0836C511.621 85.4836 518.952 82.6836 528.421 82.6836C530.967 82.6836 533.665 83.0909 536.516 83.9055C539.367 84.6182 542.065 85.6873 544.611 87.1127V53.8182H558.509V176H544.611V164.087H541.251ZM615.855 177.527C606.386 177.527 599.055 174.524 593.863 168.516C588.67 162.509 586.074 154.007 586.074 143.011V117.964C586.074 106.764 588.67 98.1091 593.863 92C599.055 85.8909 606.437 82.8364 616.008 82.8364C625.477 82.8364 632.808 85.8909 638.001 92C643.194 98.1091 645.79 106.764 645.79 117.964V143.011C645.79 154.007 643.194 162.509 638.001 168.516C632.808 174.524 625.426 177.527 615.855 177.527ZM615.855 165.004C621.354 165.004 625.375 163.273 627.921 159.811C630.568 156.247 631.892 150.698 631.892 143.164V117.964C631.892 110.225 630.568 104.524 627.921 100.858C625.375 97.1927 621.354 95.36 615.855 95.36C610.357 95.36 606.335 97.1927 603.79 100.858C601.244 104.524 599.972 110.225 599.972 117.964V143.164C599.972 150.698 601.244 156.247 603.79 159.811C606.335 163.273 610.357 165.004 615.855 165.004ZM687.253 108.189V176H673.355V84.3636H687.253V96.2764H690.613C691.835 92.4073 694.075 89.2 697.333 86.6545C700.693 84.1091 704.308 82.8364 708.177 82.8364C712.046 82.8364 715.457 84.0582 718.409 86.5018C721.464 88.9455 723.755 92.2036 725.282 96.2764H730.322C731.544 92.4073 733.784 89.2 737.042 86.6545C740.402 84.1091 744.118 82.8364 748.191 82.8364C753.893 82.8364 758.526 85.2291 762.089 90.0145C765.653 94.6982 767.435 100.858 767.435 108.495V176H753.537V110.938C753.537 106.255 752.722 102.589 751.093 99.9418C749.464 97.2945 747.224 95.9709 744.373 95.9709C740.911 95.9709 737.653 97.04 734.598 99.1782C731.646 101.316 729.202 104.32 727.268 108.189V176H713.522V110.938C713.522 106.255 712.708 102.589 711.078 99.9418C709.449 97.2945 707.158 95.9709 704.206 95.9709C700.744 95.9709 697.537 97.04 694.584 99.1782C691.631 101.316 689.188 104.32 687.253 108.189ZM794.925 176V53.8182H856.932V66.0364H808.823V116.131H848.838V128.349H808.823V176H794.925ZM904.046 177.527C897.632 177.527 892.388 174.931 888.315 169.738C884.243 164.444 882.206 157.673 882.206 149.425V84.3636H896.105V146.524C896.105 152.225 897.174 156.655 899.312 159.811C901.45 162.865 904.505 164.393 908.475 164.393C912.243 164.393 915.806 163.273 919.166 161.033C922.526 158.691 925.479 155.331 928.025 150.953V84.3636H941.923V176H928.025V164.087H924.665C923.443 168.058 920.897 171.316 917.028 173.862C913.159 176.305 908.832 177.527 904.046 177.527ZM1000.03 177.68C994.128 177.68 988.222 176.713 982.317 174.778C976.513 172.844 971.575 170.095 967.502 166.531L972.542 155.382C976.309 158.233 980.637 160.575 985.524 162.407C990.513 164.24 995.4 165.156 1000.19 165.156C1005.38 165.156 1009.3 164.087 1011.95 161.949C1014.59 159.811 1015.92 156.705 1015.92 152.633C1015.92 147.644 1014.54 144.182 1011.79 142.247C1009.04 140.313 1004.05 138.378 996.826 136.444C988.273 134.204 981.604 131.2 976.819 127.433C972.135 123.665 969.793 117.353 969.793 108.495C969.793 100.858 972.288 94.6982 977.277 90.0145C982.266 85.2291 988.833 82.8364 996.979 82.8364C1002.27 82.8364 1007.62 83.9055 1013.01 86.0436C1018.41 88.08 1023.04 90.8291 1026.91 94.2909L1022.03 105.44C1018.56 102.793 1014.64 100.451 1010.27 98.4145C1005.89 96.2764 1001.51 95.2073 997.131 95.2073C992.753 95.2073 989.393 96.3273 987.051 98.5673C984.709 100.705 983.539 103.811 983.539 107.884C983.539 112.873 984.964 116.385 987.815 118.422C990.768 120.356 995.96 122.342 1003.39 124.378C1012.25 126.72 1018.82 129.927 1023.09 134C1027.47 137.971 1029.66 143.978 1029.66 152.022C1029.66 159.658 1026.91 165.869 1021.41 170.655C1016.02 175.338 1008.89 177.68 1000.03 177.68ZM1067 176V84.3636H1080.9V176H1067ZM1074.03 67.1055C1070.87 67.1055 1068.27 66.5455 1066.24 65.4254C1064.2 64.2036 1063.18 62.0145 1063.18 58.8582V57.9418C1063.18 54.6836 1064.2 52.4436 1066.24 51.2218C1068.27 50 1070.87 49.3891 1074.03 49.3891C1077.18 49.3891 1079.78 50 1081.82 51.2218C1083.85 52.4436 1084.87 54.6836 1084.87 57.9418V58.8582C1084.87 62.0145 1083.85 64.2036 1081.82 65.4254C1079.78 66.5455 1077.18 67.1055 1074.03 67.1055ZM1148.4 177.527C1138.93 177.527 1131.6 174.524 1126.41 168.516C1121.22 162.509 1118.62 154.007 1118.62 143.011V117.964C1118.62 106.764 1121.22 98.1091 1126.41 92C1131.6 85.8909 1138.98 82.8364 1148.55 82.8364C1158.02 82.8364 1165.36 85.8909 1170.55 92C1175.74 98.1091 1178.34 106.764 1178.34 117.964V143.011C1178.34 154.007 1175.74 162.509 1170.55 168.516C1165.36 174.524 1157.97 177.527 1148.4 177.527ZM1148.4 165.004C1153.9 165.004 1157.92 163.273 1160.47 159.811C1163.11 156.247 1164.44 150.698 1164.44 143.164V117.964C1164.44 110.225 1163.11 104.524 1160.47 100.858C1157.92 97.1927 1153.9 95.36 1148.4 95.36C1142.9 95.36 1138.88 97.1927 1136.34 100.858C1133.79 104.524 1132.52 110.225 1132.52 117.964V143.164C1132.52 150.698 1133.79 156.247 1136.34 159.811C1138.88 163.273 1142.9 165.004 1148.4 165.004ZM1205.9 176V84.3636H1219.8V96.2764H1223.16C1224.89 92.3055 1227.64 89.0982 1231.41 86.6545C1235.28 84.1091 1239.35 82.8364 1243.63 82.8364C1250.04 82.8364 1255.28 85.4836 1259.36 90.7782C1263.53 95.9709 1265.62 102.691 1265.62 110.938V176H1251.72V113.84C1251.72 108.24 1250.65 103.862 1248.51 100.705C1246.37 97.5491 1243.32 95.9709 1239.35 95.9709C1235.58 95.9709 1232.02 97.1418 1228.66 99.4836C1225.3 101.825 1222.35 105.135 1219.8 109.411V176H1205.9Z" fill="#009688"/>
  <path d="M94.759 91.6418L105.75 78.375H142M142 78.375L120.25 60M142 78.375L120.25 96.75M26 139.625H55L66.4332 125.825M26 78.375H55L105.75 139.625H142M142 139.625L120.25 158M142 139.625L120.25 121.25" stroke="white" stroke-width="12" stroke-linecap="round" stroke-linejoin="round"/>
</svg>
